# xmcd
#
# Track frame offsets:
#	150
#	2915
#	13736
#	30286
#	49959
#	68950
#	87325
#	105167
#	121208
#	148147
#	167156
#	181793
#	201495
#	217393
#	235343
#	253394
#	265283
#	285963
#	310353
#	339475
#
# Disc length: 4534 seconds
#
# Revision: 0
# Processed by: cddbd v1.5.2PL0 Copyright (c) Steve Scherf et al.
# Submitted via: dBpowerAMP V4.0
#
DISCID=2b11b414
DTITLE=aaron w. - aaron w.
DYEAR=1900
DGENRE=
TTITLE0=a
TTITLE1=a
TTITLE2=a
TTITLE3=a
TTITLE4=a
TTITLE5=a
TTITLE6=a
TTITLE7=a
TTITLE8=a
TTITLE9=a
TTITLE10=a
TTITLE11=a
TTITLE12=a
TTITLE13=a
TTITLE14=a
TTITLE15=a
TTITLE16=a
TTITLE17=a
TTITLE18=a
TTITLE19=DATA
EXTD=aaron w.\n
EXTT0=
EXTT1=
EXTT2=
EXTT3=
EXTT4=
EXTT5=
EXTT6=
EXTT7=
EXTT8=
EXTT9=
EXTT10=
EXTT11=
EXTT12=
EXTT13=
EXTT14=
EXTT15=
EXTT16=
EXTT17=
EXTT18=
EXTT19=
PLAYORDER=
